<?xml version="1.0" standalone="no"?>
<!DOCTYPE svg PUBLIC "-//W3C//DTD SVG 20010904//EN"
 "http://www.w3.org/TR/2001/REC-SVG-20010904/DTD/svg10.dtd">
<svg version="1.0" xmlns="http://www.w3.org/2000/svg"
 width="512.000000pt" height="512.000000pt" viewBox="0 0 512.000000 512.000000"
 preserveAspectRatio="xMidYMid meet">

<g transform="translate(0.000000,512.000000) scale(0.100000,-0.100000)"
fill="#000000" stroke="none">
<path d="M336 4604 c-32 -10 -64 -31 -96 -63 -87 -87 -81 51 -78 -1646 l3
-1500 29 -53 c28 -50 61 -82 116 -113 21 -12 179 -15 935 -19 l910 -5 0 -100
0 -100 -240 -5 c-201 -4 -245 -8 -271 -22 -45 -25 -109 -100 -122 -146 -12
-41 -17 -258 -6 -287 18 -46 2 -45 1044 -45 1042 0 1026 -1 1044 45 3 9 6 71
6 138 0 137 -15 184 -73 245 -62 65 -68 67 -332 72 l-240 5 0 100 0 100 910 5
c836 5 913 6 941 22 44 24 91 73 117 122 l22 41 3 1500 c3 1696 9 1559 -78
1646 -86 86 125 79 -2324 78 -1895 0 -2177 -2 -2220 -15z m4435 -182 l29 -32
0 -1250 0 -1250 -2240 0 -2240 0 0 1249 0 1248 21 27 c12 15 31 32 43 36 11 5
997 8 2189 7 l2169 -2 29 -33z m27 -2848 l-3 -156 -28 -24 -28 -24 -2179 0
-2179 0 -28 24 -28 24 -3 156 -3 156 2241 0 2241 0 -3 -156z m-1998 -469 l0
-105 -240 0 -240 0 0 105 0 105 240 0 240 0 0 -105z m625 -290 c22 -21 25 -33
25 -90 l0 -65 -890 0 -890 0 0 65 c0 57 3 69 25 90 l24 25 841 0 841 0 24 -25z"/>
<path d="M685 3985 l-25 -24 0 -595 c0 -327 3 -602 6 -611 15 -39 54 -45 279
-45 l215 0 0 -225 0 -226 25 -24 24 -25 595 0 c327 0 602 3 611 6 44 17 45 30
45 649 l0 587 -29 29 -29 29 -226 0 -226 0 0 229 0 230 -26 20 c-26 21 -35 21
-621 21 l-594 0 -24 -25z m1105 -625 l0 -490 -485 0 -485 0 0 490 0 490 485 0
485 0 0 -490z m510 -500 l0 -490 -490 0 -490 0 0 170 0 169 294 3 c273 3 295
4 315 22 20 19 21 27 21 311 0 160 3 295 7 298 3 4 82 7 175 7 l168 0 0 -490z"/>
<path d="M2909 3997 c-20 -15 -39 -51 -39 -72 0 -9 13 -30 29 -46 l29 -29 746
0 c532 0 752 3 770 11 36 17 52 61 36 99 -7 17 -21 35 -31 40 -28 16 -1520 13
-1540 -3z"/>
<path d="M2903 3550 c-12 -10 -24 -29 -28 -40 -10 -30 12 -75 41 -89 18 -8
236 -11 764 -11 528 0 746 3 764 11 36 17 52 61 36 99 -7 17 -21 35 -31 40
-11 6 -308 10 -771 10 -736 0 -755 0 -775 -20z"/>
<path d="M2903 3110 c-12 -10 -24 -29 -28 -40 -10 -30 12 -75 41 -89 18 -8
238 -11 773 -11 737 0 748 0 769 20 12 11 24 31 28 44 7 28 -18 81 -41 90 -9
3 -355 6 -769 6 -734 0 -753 0 -773 -20z"/>
<path d="M2895 2600 c-26 -29 -25 -85 3 -112 18 -18 36 -23 109 -26 134 -6
196 30 177 104 -11 45 -39 54 -160 54 -99 0 -113 -2 -129 -20z"/>
<path d="M3260 2600 c-26 -26 -27 -83 -1 -109 26 -26 76 -35 169 -29 67 5 78
8 99 32 29 34 29 65 2 100 -20 25 -23 26 -135 26 -101 0 -116 -2 -134 -20z"/>
<path d="M3622 2597 c-30 -32 -29 -77 4 -108 24 -22 33 -24 129 -24 96 0 105
2 129 24 34 32 35 79 3 109 -21 20 -34 22 -133 22 -103 0 -112 -2 -132 -23z"/>
</g>
</svg>
